<svg width="auto" height="100%" viewBox="0 0 608 137" fill="none" xmlns="http://www.w3.org/2000/svg">
<path d="M111.067 135.781V8.2334H122.181L180.489 107.72H174.658L232.419 8.2334H243.534V135.781H230.597V28.4588H233.694L180.489 119.564H174.111L120.541 28.4588H124.003V135.781H111.067Z" fill="#010F58"></path>
<path d="M307.992 136.692C298.031 136.692 289.285 134.627 281.754 130.497C274.222 126.245 268.331 120.475 264.079 113.187C259.828 105.777 257.702 97.3342 257.702 87.8593C257.702 78.3843 259.706 70.0026 263.715 62.7142C267.845 55.4257 273.433 49.7165 280.478 45.5864C287.645 41.3348 295.662 39.209 304.53 39.209C313.519 39.209 321.476 41.274 328.4 45.4041C335.445 49.4128 340.972 55.1221 344.981 62.532C348.989 69.8204 350.994 78.2628 350.994 87.8593C350.994 88.4666 350.933 89.1348 350.812 89.8636C350.812 90.471 350.812 91.1391 350.812 91.8679H267.541V82.2107H343.888L338.786 86.0372C338.786 79.1132 337.267 72.9787 334.23 67.6339C331.315 62.1675 327.306 57.916 322.204 54.8791C317.103 51.8423 311.211 50.3239 304.53 50.3239C297.97 50.3239 292.079 51.8423 286.856 54.8791C281.632 57.916 277.563 62.1675 274.647 67.6339C271.732 73.1002 270.274 79.3561 270.274 86.4016V88.4059C270.274 95.6944 271.854 102.133 275.012 107.72C278.292 113.187 282.786 117.499 288.495 120.657C294.326 123.694 300.947 125.213 308.356 125.213C314.187 125.213 319.593 124.18 324.573 122.115C329.675 120.05 334.048 116.892 337.692 112.64L344.981 121.022C340.729 126.124 335.384 130.011 328.946 132.683C322.63 135.356 315.645 136.692 307.992 136.692Z" fill="#010F58"></path>
<path d="M409.408 136.692C400.298 136.692 392.098 134.627 384.81 130.497C377.643 126.367 371.994 120.657 367.864 113.369C363.734 105.959 361.669 97.4555 361.669 87.8591C361.669 78.1412 363.734 69.638 367.864 62.3496C371.994 55.0611 377.643 49.4126 384.81 45.4039C392.098 41.2738 400.298 39.2088 409.408 39.2088C417.79 39.2088 425.26 41.0916 431.82 44.8573C438.501 48.623 443.785 54.1501 447.672 61.4385C451.681 68.6055 453.685 77.4123 453.685 87.8591C453.685 98.1844 451.742 106.992 447.855 114.28C443.967 121.568 438.683 127.156 432.002 131.043C425.443 134.809 417.911 136.692 409.408 136.692ZM410.319 125.213C417.122 125.213 423.195 123.694 428.54 120.657C434.007 117.499 438.258 113.126 441.295 107.538C444.453 101.829 446.033 95.269 446.033 87.8591C446.033 80.3277 444.453 73.7681 441.295 68.1803C438.258 62.5925 434.007 58.2802 428.54 55.2433C423.195 52.085 417.122 50.5058 410.319 50.5058C403.638 50.5058 397.625 52.085 392.28 55.2433C386.935 58.2802 382.684 62.5925 379.526 68.1803C376.367 73.7681 374.788 80.3277 374.788 87.8591C374.788 95.269 376.367 101.829 379.526 107.538C382.684 113.126 386.935 117.499 392.28 120.657C397.625 123.694 403.638 125.213 410.319 125.213ZM446.397 135.781V106.992L447.672 87.6769L445.85 68.3625V0.580078H458.787V135.781H446.397Z" fill="#010F58"></path>
<path d="M40.4508 136.692C32.3121 136.692 25.2058 135.173 19.1321 132.136C13.0584 129.1 8.32096 124.544 4.91969 118.471C1.6399 112.397 0 104.805 0 95.6944V40.1201H12.937V94.2367C12.937 104.44 15.4272 112.154 20.4076 117.377C25.5095 122.479 32.6157 125.03 41.7263 125.03C48.4073 125.03 54.1774 123.694 59.0363 121.022C64.0167 118.228 67.7824 114.219 70.3334 108.996C73.0058 103.772 74.342 97.5165 74.342 90.2281V40.1201H87.279V135.781H74.8886V109.542L76.893 114.28C73.8561 121.325 69.1186 126.852 62.6805 130.861C56.3639 134.748 48.954 136.692 40.4508 136.692Z" fill="#0839E6"></path>
<path d="M516.654 21.7154V0H536.019C540.408 0 541.29 3.94826 541.182 5.92239V22.7025L528.918 34.2183V21.7154H516.654Z" fill="#0839E6"></path>
<path d="M542.287 35.0957H563.976V54.4841C563.976 58.8787 560.032 59.762 558.061 59.6543H541.301L529.799 47.375H542.287V35.0957Z" fill="#0839E6"></path>
<path d="M528.047 59.8827V81.5981H508.681C504.292 81.5981 503.41 77.6499 503.518 75.6758V58.8957L515.782 47.3799V59.8827H528.047Z" fill="#0839E6"></path>
<path d="M503.29 46.5015H481.601V27.1132C481.601 22.7185 485.544 21.8352 487.516 21.943H504.276L515.778 34.2222H503.29V46.5015Z" fill="#0839E6"></path>
</svg>